HIERARCHY
ROOT Hips
{
	OFFSET -3.958830 18.904000 13.208200
	CHANNELS 6 Xposition Yposition Zposition Zrotation Yrotation Xrotation 
	JOINT LHipJoint
	{
		OFFSET 0.000000 0.000000 0.000000
		CHANNELS 3 Zrotation Yrotation Xrotation
		JOINT LeftUpLeg
		{
			OFFSET 1.800000 -1.400000 0.085000
			CHANNELS 3 Zrotation Yrotation Xrotation
			JOINT LeftLeg
			{
				OFFSET 2.215000 -6.000000 0.000000
				CHANNELS 3 Zrotation Yrotation Xrotation
				JOINT LeftFoot
				{
					OFFSET 2.500000 -6.900000 0.000000
					CHANNELS 3 Zrotation Yrotation Xrotation
					JOINT LeftToeBase
					{
						OFFSET 0.200000 -0.500000 1.950000
						CHANNELS 3 Zrotation Yrotation Xrotation
						End Site
						{
							OFFSET 0.000000 0.000000 0.000000
						}
					}
				}
			}
		}
	}
	JOINT RHipJoint
	{
		OFFSET 0.000000 0.000000 0.000000
		CHANNELS 3 Zrotation Yrotation Xrotation
		JOINT RightUpLeg
		{
			OFFSET -1.800000 -1.400000 0.085000
			CHANNELS 3 Zrotation Yrotation Xrotation
			JOINT RightLeg
			{
				OFFSET -2.215000 -6.000000 0.000000
				CHANNELS 3 Zrotation Yrotation Xrotation
				JOINT RightFoot
				{
					OFFSET -2.500000 -6.900000 0.000000
					CHANNELS 3 Zrotation Yrotation Xrotation
					JOINT RightToeBase
					{
						OFFSET -0.200000 -0.500000 1.950000
						CHANNELS 3 Zrotation Yrotation Xrotation
						End Site
						{
							OFFSET 0.000000 0.000000 0.000000
						}
					}
				}
			}
		}
	}
	JOINT LowerBack
	{
		OFFSET 0.000000 0.000000 0.000000
		CHANNELS 3 Zrotation Yrotation Xrotation
		JOINT Spine
		{
			OFFSET -0.087000 1.940000 -0.288900
			CHANNELS 3 Zrotation Yrotation Xrotation
			JOINT Spine1
			{
				OFFSET 0.000000 1.950000 0.060000
				CHANNELS 3 Zrotation Yrotation Xrotation
				JOINT Neck
				{
					OFFSET 0.000000 0.000000 0.000000
					CHANNELS 3 Zrotation Yrotation Xrotation
					JOINT Neck1
					{
						OFFSET 0.000000 1.600000 0.340000
						CHANNELS 3 Zrotation Yrotation Xrotation
						JOINT Head
						{
							OFFSET 0.000000 1.667000 -0.240000
							CHANNELS 3 Zrotation Yrotation Xrotation
							End Site
							{
								OFFSET 0.000000 0.000000 0.000000
							}
						}
					}
				}
				JOINT LeftShoulder
				{
					OFFSET 0.000000 0.000000 0.000000
					CHANNELS 3 Zrotation Yrotation Xrotation
					JOINT LeftArm
					{
						OFFSET 2.700000 1.550000 -0.730000
						CHANNELS 3 Zrotation Yrotation Xrotation
						JOINT LeftForeArm
						{
							OFFSET 5.450000 0.000000 0.000000
							CHANNELS 3 Zrotation Yrotation Xrotation
							JOINT LeftHand
							{
								OFFSET 3.450000 0.000000 0.000000
								CHANNELS 3 Zrotation Yrotation Xrotation
								JOINT LeftHandIndex1
								{
									OFFSET 0.750000 0.000000 0.000000
									CHANNELS 3 Zrotation Yrotation Xrotation
									End Site
									{
										OFFSET 0.000000 0.000000 0.000000
									}
								}
							}
						}
					}
				}
				JOINT RightShoulder
				{
					OFFSET 0.000000 0.000000 0.000000
					CHANNELS 3 Zrotation Yrotation Xrotation
					JOINT RightArm
					{
						OFFSET -2.700000 1.550000 -0.730000
						CHANNELS 3 Zrotation Yrotation Xrotation
						JOINT RightForeArm
						{
							OFFSET -5.450000 0.000000 0.000000
							CHANNELS 3 Zrotation Yrotation Xrotation
							JOINT RightHand
							{
								OFFSET -3.450000 0.000000 0.000000
								CHANNELS 3 Zrotation Yrotation Xrotation
								JOINT RightHandIndex1
								{
									OFFSET -0.750000 0.000000 0.000000
									CHANNELS 3 Zrotation Yrotation Xrotation
									End Site
									{
										OFFSET 0.000000 0.000000 0.000000
									}
								}
							}
						}
					}
				}
			}
		}
	}
}
MOTION
Frames: 12
Frame Time: 0.016667
0.192360 17.763720 -2.894070 2.877219 -7.214361 -1.713149 -14.779541 12.997530 3.206441 9.002481 -3.223160 -16.322014 -14.946184 12.953710 31.889339 -0.522086 8.178626 1.956800 0.113770 -0.169200 -0.473730 18.708182 -11.009705 2.131481 -5.287817 2.305457 -21.592305 -0.437004 -6.006884 31.174624 -0.204402 -4.581076 3.241990 0.147710 1.047040 -0.012920 -4.725268 -1.380626 -6.689987 20.756287 -5.829070 7.363887 -11.720901 -3.296285 13.420101 0.973363 -10.731413 -10.787200 -29.233353 14.561844 42.612805 2.630050 -1.470120 -6.128140 -6.801787 -1.885448 4.210129 -32.370090 -2.048178 -5.583062 9.563408 -62.049988 -8.760322 -3.834803 2.513482 0.803190 0.443500 -0.468920 0.453690 4.437286 7.348519 5.257247 20.764077 1.826370 -9.059872 6.736300 63.425113 3.648833 1.113846 -1.397909 -0.751400 0.952510 0.459760 -0.138110 
0.257680 17.723920 -2.891550 3.619757 -7.638845 -1.909172 -14.767306 13.131176 2.987198 8.100908 -2.810719 -15.469142 -12.244939 11.667980 31.359584 -0.606472 7.649263 2.143096 0.159680 -0.126270 -0.426340 18.703475 -10.963675 2.348922 -4.536430 2.726219 -21.786482 2.539139 -6.517917 29.022798 -0.212868 -4.362152 3.300787 0.151330 1.008540 0.008820 -4.730855 -1.443117 -6.677823 20.174196 -5.674477 7.780923 -11.606495 -3.234229 13.126926 0.944856 -10.819663 -10.855670 -29.965184 14.926680 43.366099 3.167790 -1.753580 -7.325640 -8.165531 -3.099417 4.236598 -30.918045 -1.841822 -5.338258 4.826592 -56.790300 -5.440127 -3.819336 2.527197 0.821450 0.404610 -0.416420 0.462360 5.871377 8.694394 5.326088 20.188326 3.930907 -8.052932 12.883899 62.026552 6.814575 1.189796 -1.379468 -0.712170 0.944540 0.428490 -0.129920 
0.331280 17.632550 -2.885320 4.325855 -7.548171 -1.747307 -14.770297 13.242127 2.757822 7.240653 -2.350460 -14.541019 -9.665941 10.269759 29.969716 -0.795711 7.084415 2.343672 0.149350 -0.156620 -0.416470 18.696029 -10.876810 2.569948 -4.207669 3.252275 -22.438099 5.820727 -7.162816 27.305128 -0.195347 -4.299628 3.304902 0.159980 1.008960 0.000490 -4.720728 -1.535400 -6.647639 19.667911 -5.520043 7.628266 -11.388349 -3.237689 12.848135 0.828288 -10.937253 -10.666036 -30.073690 15.014693 42.879157 3.062540 -1.663280 -8.058380 -9.192064 -3.869554 4.143276 -29.813445 -2.071262 -4.667470 1.049276 -51.656935 -3.139161 -3.855930 2.493126 0.852400 0.402690 -0.429140 0.437370 7.106670 9.575541 5.197060 20.251554 6.164290 -7.090995 17.667953 60.726434 9.179141 1.211992 -1.341353 -0.749620 0.963010 0.458030 -0.158290 
0.399800 17.513640 -2.868970 5.431796 -7.735340 -1.605315 -14.803053 13.366499 2.593097 6.168500 -1.963540 -13.567988 -7.397532 9.118826 28.781850 -1.006223 6.748711 2.511073 0.045120 -0.317950 -0.454070 18.657270 -10.750101 2.768593 -4.820541 3.757722 -23.282746 9.292346 -8.017757 26.148191 -0.188696 -4.403745 3.266396 0.116320 1.102190 0.004630 -4.622104 -1.763792 -6.673056 18.303731 -5.224394 7.694410 -11.054533 -3.066190 12.457067 0.888752 -10.842758 -10.572967 -29.303417 14.787368 42.100960 1.873810 -1.120640 -8.625160 -9.716327 -4.507649 4.012811 -29.140693 -2.501444 -3.816798 -0.992552 -45.496902 -1.984350 -3.976316 2.328474 0.929710 0.454050 -0.470780 0.403680 7.521548 10.291280 5.280220 21.236840 7.904252 -6.367446 23.323420 60.642216 12.066020 1.180506 -1.248296 -0.866080 1.054360 0.565310 -0.203320 
0.470630 17.387400 -2.871890 5.802468 -8.173542 -1.710925 -14.809473 13.416345 2.439327 6.122955 -1.606830 -12.770385 -5.634412 8.391417 28.195153 -1.098295 6.486773 2.597455 0.057720 -0.307360 -0.410110 18.648495 -10.632287 2.998712 -5.290956 4.501880 -24.401953 12.488925 -8.919000 26.221376 -0.264457 -4.649309 3.155618 0.124360 1.066900 0.014310 -4.604284 -1.834008 -6.749641 17.873203 -5.161823 8.594424 -10.907700 -2.969854 12.175452 0.973910 -10.850288 -10.381474 -28.864845 14.579333 41.498633 0.521230 -0.473040 -10.703960 -10.026257 -4.765553 3.762784 -28.945919 -3.623992 -2.874167 -2.047044 -39.207716 -1.414276 -4.008308 2.245044 0.967240 0.439920 -0.436940 0.380140 7.648161 10.644385 5.166136 22.190641 9.551999 -5.767139 28.790029 61.343738 14.980138 1.199827 -1.229129 -0.871110 1.065040 0.570150 -0.229510 
0.543290 17.262890 -2.891090 5.862217 -8.638241 -2.285978 -14.804028 13.478856 2.308706 6.306650 -1.286857 -11.749077 -3.940818 7.732060 27.722257 -1.159724 6.259625 2.662946 0.094030 -0.295930 -0.323990 18.637949 -10.514622 3.271724 -6.553761 5.412194 -25.867942 15.739189 -10.223272 27.691534 -0.413578 -5.140186 2.939438 0.116330 0.976660 0.042020 -4.594040 -1.915733 -6.929440 17.672480 -5.447953 10.684897 -10.877608 -3.080558 11.595540 1.411758 -10.611821 -10.426573 -27.781933 14.280360 41.663649 -1.378280 0.529760 -13.030750 -11.318189 -5.828076 3.853737 -28.212191 -3.610128 -2.533779 -0.678488 -34.038896 -1.734596 -3.988528 2.184985 1.037020 0.392290 -0.367690 0.354860 8.116833 11.658573 5.141435 22.851976 11.490826 -5.160887 35.522251 61.848395 18.619681 1.254793 -1.213037 -0.856950 1.028160 0.546000 -0.274030 
0.618010 17.130150 -2.927940 5.480722 -9.721547 -2.568375 -14.776247 13.345181 2.143926 7.206693 -1.052726 -11.335712 -3.344002 7.782999 28.281096 -1.152648 6.312728 2.633393 0.112520 -0.267490 -0.281210 18.687624 -10.283179 3.696177 -9.197617 6.991395 -29.000580 20.088417 -12.595386 31.370999 -0.657070 -6.188506 2.543366 0.126600 0.936480 0.045720 -4.719741 -1.777017 -7.143410 18.672546 -5.784943 12.880458 -11.511802 -3.099219 10.819728 1.592291 -10.639239 -10.188906 -26.879635 14.201991 40.483501 -2.565730 1.277190 -14.684090 -12.630871 -6.453163 3.793163 -26.867392 -3.779019 -1.811238 0.247234 -28.832471 -1.749687 -4.006095 2.132914 1.049230 0.373170 -0.333030 0.342860 9.001385 12.291286 4.837185 23.519211 13.731309 -4.217324 43.691195 63.494856 23.616014 1.328737 -1.205412 -0.846700 1.024560 0.527980 -0.284950 
0.687560 16.992480 -2.970920 5.075383 -10.723085 -2.749021 -14.787884 13.100492 1.992680 8.271682 -0.932745 -11.462401 -3.643862 8.413636 29.833514 -1.078330 6.567629 2.502264 0.176360 -0.192420 -0.192550 18.734263 -9.880144 4.264496 -13.606023 8.593635 -33.134063 25.791915 -16.056238 35.450348 -1.022585 -7.625675 2.025098 0.148700 0.842660 0.065580 -4.797329 -1.696919 -7.453530 19.172205 -6.003416 15.156720 -11.915631 -2.999379 10.211526 1.925398 -10.345137 -9.935562 -25.133076 13.723012 39.697614 -4.320960 2.078590 -16.412260 -13.311958 -6.853342 3.730580 -26.102161 -4.393831 -1.005344 2.060086 -23.431501 -1.864112 -4.004353 2.130540 1.048830 0.337980 -0.276120 0.328320 8.984443 12.636394 4.475190 24.998308 16.275810 -3.061252 52.172168 65.316956 29.075127 1.423650 -1.220766 -0.794810 0.969110 0.472790 -0.303180 
0.733430 16.871250 -3.010550 4.561849 -11.912982 -3.693993 -14.805371 12.863174 1.830454 9.524789 -0.619023 -10.850871 -4.112858 9.241051 31.387840 -0.974950 6.889938 2.346012 0.232140 -0.120290 -0.132600 18.781063 -9.458230 4.869246 -18.909683 9.745992 -36.624282 32.463918 -20.041398 38.448787 -1.419592 -9.077270 1.541804 0.172950 0.747310 0.068140 -4.865501 -1.645549 -7.780683 19.522593 -6.445728 18.418957 -12.510168 -3.077072 9.417482 2.215288 -10.296518 -10.026572 -24.287114 14.016418 39.033867 -5.105160 2.728350 -17.391230 -14.296560 -7.584679 4.038803 -25.224609 -4.001936 -0.531138 5.442319 -18.477661 -2.095582 -3.976831 2.162002 1.044140 0.292400 -0.232190 0.314670 9.430180 13.568753 4.285844 26.798614 18.921026 -2.104175 59.062147 68.192809 34.381729 1.544405 -1.199372 -0.746840 0.903970 0.420260 -0.314300 
0.777430 16.780200 -3.036600 3.584133 -12.110320 -5.356552 -14.815576 12.700093 1.691907 11.213791 -0.365614 -9.776580 -4.310725 10.030244 33.223936 -0.980492 7.417664 2.143582 0.212620 -0.193580 -0.068540 18.814437 -9.147673 5.314544 -24.258973 9.737528 -37.781446 40.281122 -23.641396 38.142094 -1.747198 -10.010264 1.230371 0.149600 0.709020 0.080990 -4.911811 -1.628559 -8.027253 20.514531 -7.487778 22.203906 -13.504560 -3.551682 9.211972 2.851207 -10.071140 -10.259712 -23.231742 14.290267 38.971798 -7.069620 3.349830 -20.642390 -15.827880 -9.070916 4.505920 -23.142478 -3.470774 0.007383 8.824339 -13.294203 -2.218903 -4.006056 2.065394 1.163150 0.251620 -0.186860 0.266770 9.794692 14.867098 4.352284 28.295703 21.336529 -1.683110 65.642223 72.566500 40.566379 1.673149 -0.939727 -0.805800 0.939350 0.463430 -0.378840 
0.801300 16.715830 -3.091960 3.253274 -12.542855 -7.959131 -14.868020 12.657454 1.640525 12.566795 0.045649 -8.472096 -4.720340 11.106874 35.482948 -0.853101 7.968796 1.933927 0.248490 -0.167620 -0.009080 18.787486 -8.860589 5.653198 -29.200213 9.676454 -37.893037 46.868598 -26.269483 37.517161 -2.004715 -10.574291 1.069513 0.142190 0.632080 0.077970 -4.792320 -1.821809 -8.270525 19.910812 -8.054820 27.679065 -13.474456 -3.764038 9.143612 3.278627 -10.141468 -11.107128 -23.629317 14.677569 39.427502 -7.796620 2.980990 -23.953290 -17.377595 -11.353052 5.559406 -20.535234 -2.075839 0.246562 11.841145 -8.976295 -2.065707 -3.945577 2.048210 1.236660 0.175090 -0.115510 0.255710 10.700751 17.616989 4.757893 27.145556 23.497688 -1.526161 76.892876 77.876192 50.668941 2.125236 -0.169862 -0.791640 0.949010 0.441240 -0.395650 
0.811450 16.675320 -3.153370 2.617146 -13.067531 -10.398738 -14.932467 12.692226 1.620200 14.191498 0.478829 -7.664116 -4.656579 12.134202 38.069890 -0.684317 8.468503 1.716676 0.286240 -0.127610 0.074250 18.734093 -8.635043 5.859920 -32.912223 9.701709 -37.171873 52.397434 -27.581657 35.891171 -2.153677 -10.725593 1.021721 0.119750 0.496020 0.056930 -4.614241 -2.068788 -8.442239 19.350193 -8.241662 32.842205 -13.219802 -3.828048 9.057519 3.977400 -9.917528 -12.002609 -23.803077 14.789370 41.452259 -9.224580 2.636910 -27.151370 -18.420186 -13.851287 7.087202 -18.011463 0.115983 0.274203 13.742801 -5.724751 -1.743433 -3.840882 2.066667 1.287200 0.071700 -0.033950 0.214530 10.535499 20.735446 4.509827 25.813228 25.020470 -3.775898 93.904561 78.818342 64.469697 2.911921 1.643379 -0.742350 0.914600 0.401320 -0.417970 
